<?xml version="1.0" encoding="UTF-8"?>
<svg version="1.1" xmlns="http://www.w3.org/2000/svg" width="676" height="996">
<path d="M0 0 C221.1 0 442.2 0 670 0 C670 109.56 670 219.12 670 332 C559.45 332.33 448.9 332.66 335 333 C371.21225571 370.34200918 371.21225571 370.34200918 409 406 C410.57400746 407.49854105 412.13228195 409.01397318 413.66662598 410.55310059 C414.91528191 411.80186226 414.91528191 411.80186226 416.18916321 413.07585144 C417.07355576 413.96541031 417.9579483 414.85496918 418.86914062 415.77148438 C419.83247298 416.73674049 420.79603665 417.7017658 421.7598114 418.6665802 C423.81989225 420.72980003 425.87841465 422.79455733 427.93571472 424.86054993 C431.19543953 428.13390452 434.45907126 431.40334547 437.7232666 434.67224121 C445.23982697 442.2007959 452.75134403 449.73437585 460.26280975 457.268013 C467.15258959 464.17802451 474.04345492 471.08694445 480.93839216 477.99181032 C484.17655259 481.23492317 487.41226624 484.48045091 490.64606476 487.7279129 C492.66502941 489.75438832 494.68611003 491.77874353 496.70774269 493.80255699 C498.07715907 495.17470808 499.44405034 496.54937781 500.81083679 497.92414856 C505.06996581 502.18363827 509.39805078 506.26313603 513.96393585 510.18978119 C518.07195198 513.84212587 521.90329169 517.78276271 525.77734375 521.6796875 C526.73082398 522.63509156 527.68453558 523.59026476 528.63845825 524.54522705 C530.67725839 526.58716584 532.71450007 528.63064189 534.7505188 530.675354 C537.97663777 533.91510454 541.20666522 537.1509398 544.43725586 540.38623047 C551.8764114 547.8373795 559.3105231 555.29355414 566.74458313 562.74978638 C573.56344902 569.58888487 580.38340096 576.42689117 587.20742512 583.26084328 C590.41213433 586.47050439 593.61439675 589.68258006 596.81474304 592.89659119 C598.81294829 594.90230811 600.81327031 596.90590398 602.81414413 598.90895844 C604.16924742 600.26679591 605.52182546 601.62715211 606.8742981 602.98760986 C611.21059287 607.32427561 615.61576496 611.49946932 620.26647949 615.49721718 C622.51488309 617.44635034 624.64562749 619.49725211 626.76367188 621.58666992 C627.60393921 622.41410202 628.44420654 623.24153412 629.30993652 624.09403992 C630.18734497 624.96406143 631.06475342 625.83408295 631.96875 626.73046875 C632.88966431 627.64331131 633.81057861 628.55615387 634.75939941 629.49665833 C636.69092144 631.41329506 638.61994813 633.33240959 640.54785156 635.25268555 C643.01877123 637.71243061 645.50117701 640.1602519 647.98613739 642.60579967 C650.36392459 644.95125602 652.72781801 647.31055509 655.09375 649.66796875 C655.98735229 650.54406296 656.88095459 651.42015717 657.80163574 652.32279968 C658.61668579 653.1407753 659.43173584 653.95875092 660.27148438 654.80151367 C660.99348022 655.51764328 661.71547607 656.23377289 662.45935059 656.97160339 C664 659 664 659 664 663 C553.45 663 442.9 663 329 663 C329 772.89 329 882.78 329 996 C324.50387664 992.14617998 320.20846558 988.35273396 316.05298901 984.17324352 C315.49510147 983.61621023 314.93721393 983.05917694 314.36242071 982.48526385 C312.50438607 980.628866 310.64993381 978.76893174 308.79545593 976.90898132 C307.44637029 975.55961549 306.09706277 974.21047147 304.74755317 972.86152965 C301.048071 969.16234251 297.35170787 965.46005246 293.65584409 961.75725067 C289.66658168 957.7616071 285.67440963 953.76887254 281.68257141 949.77580261 C274.76919415 942.85954036 267.8575952 935.94150514 260.94714928 929.02231407 C250.95414964 919.01676089 240.95791269 909.01444701 230.96078608 899.01301751 C214.738622 882.78378832 198.51832135 866.55269855 182.29956055 850.32006836 C181.81448355 849.83457772 181.32940656 849.34908708 180.82963026 848.8488846 C173.44886003 841.46181649 166.06817187 834.07466639 158.6875 826.6875 C150.80790946 818.8009773 142.92828624 810.91448726 135.04858398 803.02807617 C134.56300857 802.54208616 134.07743315 802.05609616 133.57714333 801.55537918 C116.92265998 784.88670162 100.26622153 768.2199796 83.60822803 751.55480987 C73.63061902 741.57271149 63.65479743 731.58883308 53.68124477 721.60268179 C46.85547926 714.76851492 40.02796864 707.93609485 33.19905844 701.10507026 C29.25428116 697.15894301 25.31035382 693.21197534 21.36858749 689.26284027 C17.76564743 685.65318997 14.16045067 682.0458102 10.55338965 678.44027803 C9.24380977 677.130425 7.93509102 675.81971037 6.62728783 674.50808343 C4.8597419 672.73560662 3.08919129 670.9661886 1.31780529 669.19755077 C0.80204364 668.67887626 0.28628198 668.16020174 -0.24510881 667.62580982 C-2.87215992 664.980795 -2.87215992 664.980795 -6 663 C-6 553.44 -6 443.88 -6 331 C104.55 330.67 215.1 330.34 329 330 C308.93408621 309.53601114 308.93408621 309.53601114 288 290 C286.42599254 288.50145895 284.86771805 286.98602682 283.33337402 285.44689941 C282.08471809 284.19813774 282.08471809 284.19813774 280.81083679 282.92414856 C279.92644424 282.03458969 279.0420517 281.14503082 278.13085938 280.22851562 C277.16752702 279.26325951 276.20396335 278.2982342 275.2401886 277.3334198 C273.18010775 275.27019997 271.12158535 273.20544267 269.06428528 271.13945007 C265.80456047 267.86609548 262.54092874 264.59665453 259.2767334 261.32775879 C251.76017303 253.7992041 244.24865597 246.26562415 236.73719025 238.731987 C229.84741041 231.82197549 222.95654508 224.91305555 216.06160784 218.00818968 C212.82344741 214.76507683 209.58773376 211.51954909 206.35393524 208.2720871 C204.33497059 206.24561168 202.31388997 204.22125647 200.29225731 202.19744301 C198.92284093 200.82529192 197.55594966 199.45062219 196.18916321 198.07585144 C191.93003419 193.81636173 187.60194922 189.73686397 183.03606415 185.81021881 C178.92804802 182.15787413 175.09670831 178.21723729 171.22265625 174.3203125 C170.26917602 173.36490844 169.31546442 172.40973524 168.36154175 171.45477295 C166.32274161 169.41283416 164.28549993 167.36935811 162.2494812 165.324646 C159.02336223 162.08489546 155.79333478 158.8490602 152.56274414 155.61376953 C145.1235886 148.1626205 137.6894769 140.70644586 130.25541687 133.25021362 C123.43655098 126.41111513 116.61659904 119.57310883 109.79257488 112.73915672 C106.58786567 109.52949561 103.38560325 106.31741994 100.18525696 103.10340881 C98.18705171 101.09769189 96.18672969 99.09409602 94.18585587 97.09104156 C92.83075258 95.73320409 91.47817454 94.37284789 90.1257019 93.01239014 C85.84929365 88.73561603 81.50345292 84.63044652 76.9183197 80.68758202 C73.54819157 77.72281675 70.38631357 74.55060439 67.20703125 71.3840332 C66.47434525 70.6579184 65.74165924 69.93180359 64.98677063 69.1836853 C62.59248029 66.80891675 60.20205803 64.43031104 57.8125 62.05078125 C56.99239441 61.23475119 56.17228882 60.41872112 55.32733154 59.57796288 C50.99960918 55.27099532 46.67509403 50.96083603 42.35302734 46.64819336 C37.88454341 42.19084564 33.40449355 37.74530822 28.92185974 33.30219746 C25.47527418 29.88166978 22.03752154 26.45236897 18.60214233 23.02058983 C16.95320916 21.37653843 15.30088894 19.73587703 13.64517212 18.09865761 C11.33993415 15.81761365 9.04748589 13.5244352 6.7578125 11.2277832 C6.06907547 10.55185623 5.38033844 9.87592926 4.67073059 9.17951965 C4.05123032 8.55307556 3.43173004 7.92663147 2.79345703 7.28120422 C2.25077179 6.74090734 1.70808655 6.20061045 1.1489563 5.64394093 C0 4 0 4 0 0 Z " fill="#469AD3" transform="translate(6,0)"/>
<path d="M0 0 C221.1 0 442.2 0 670 0 C670 109.56 670 219.12 670 332 C585.50134245 332.28231944 585.50134245 332.28231944 550.2421875 332.34179688 C542.17154847 332.35550209 534.1009104 332.36964549 526.03027344 332.38452148 C525.0187434 332.38636773 524.00721337 332.38821397 522.96503091 332.39011616 C506.63226053 332.42056562 490.29966258 332.47575458 473.96699446 332.54006957 C457.20662266 332.60551859 440.44634116 332.644409 423.68584681 332.65861946 C413.34270975 332.6682268 403.00005983 332.69857553 392.65707272 332.75541527 C385.56553483 332.79240272 378.47424895 332.80360398 371.38262159 332.79450964 C367.29025784 332.79002368 363.19874558 332.7969235 359.10653305 332.83443832 C355.35793913 332.86855194 351.61076755 332.87019531 347.86210757 332.84629226 C345.86770616 332.84194274 343.87332104 332.87209411 341.87916327 332.90356916 C335.92562205 332.83403476 331.96311595 332.63116528 327.3473587 328.65075779 C326.20502003 327.45872852 325.08734788 326.24239526 324 325 C322.8895183 323.90849999 321.77330127 322.82276613 320.6484375 321.74609375 C319.55480338 320.64569658 318.46371747 319.54276186 317.375 318.4375 C316.48820557 317.54502563 316.48820557 317.54502563 315.58349609 316.63452148 C313.09408927 314.12900944 310.61078987 311.61747735 308.12695312 309.10644531 C306.29510246 307.25633381 304.46011693 305.40937088 302.625 303.5625 C302.0789209 303.00812256 301.5328418 302.45374512 300.97021484 301.88256836 C298.20707663 299.10234287 295.39106477 296.45023699 292.40734863 293.90734863 C287.42718698 289.56622373 282.78708061 284.91193692 278.13085938 280.22851562 C277.16752702 279.26325951 276.20396335 278.2982342 275.2401886 277.3334198 C273.18010775 275.27019997 271.12158535 273.20544267 269.06428528 271.13945007 C265.80456047 267.86609548 262.54092874 264.59665453 259.2767334 261.32775879 C251.76017303 253.7992041 244.24865597 246.26562415 236.73719025 238.731987 C229.84741041 231.82197549 222.95654508 224.91305555 216.06160784 218.00818968 C212.82344741 214.76507683 209.58773376 211.51954909 206.35393524 208.2720871 C204.33497059 206.24561168 202.31388997 204.22125647 200.29225731 202.19744301 C198.92284093 200.82529192 197.55594966 199.45062219 196.18916321 198.07585144 C191.93003419 193.81636173 187.60194922 189.73686397 183.03606415 185.81021881 C178.92804802 182.15787413 175.09670831 178.21723729 171.22265625 174.3203125 C170.26917602 173.36490844 169.31546442 172.40973524 168.36154175 171.45477295 C166.32274161 169.41283416 164.28549993 167.36935811 162.2494812 165.324646 C159.02336223 162.08489546 155.79333478 158.8490602 152.56274414 155.61376953 C145.1235886 148.1626205 137.6894769 140.70644586 130.25541687 133.25021362 C123.43655098 126.41111513 116.61659904 119.57310883 109.79257488 112.73915672 C106.58786567 109.52949561 103.38560325 106.31741994 100.18525696 103.10340881 C98.18705171 101.09769189 96.18672969 99.09409602 94.18585587 97.09104156 C92.83075258 95.73320409 91.47817454 94.37284789 90.1257019 93.01239014 C85.84929365 88.73561603 81.50345292 84.63044652 76.9183197 80.68758202 C73.54819157 77.72281675 70.38631357 74.55060439 67.20703125 71.3840332 C66.47434525 70.6579184 65.74165924 69.93180359 64.98677063 69.1836853 C62.59248029 66.80891675 60.20205803 64.43031104 57.8125 62.05078125 C56.99239441 61.23475119 56.17228882 60.41872112 55.32733154 59.57796288 C50.99960918 55.27099532 46.67509403 50.96083603 42.35302734 46.64819336 C37.88454341 42.19084564 33.40449355 37.74530822 28.92185974 33.30219746 C25.47527418 29.88166978 22.03752154 26.45236897 18.60214233 23.02058983 C16.95320916 21.37653843 15.30088894 19.73587703 13.64517212 18.09865761 C11.33993415 15.81761365 9.04748589 13.5244352 6.7578125 11.2277832 C5.72470695 10.21389275 5.72470695 10.21389275 4.67073059 9.17951965 C4.05123032 8.55307556 3.43173004 7.92663147 2.79345703 7.28120422 C2.25077179 6.74090734 1.70808655 6.20061045 1.1489563 5.64394093 C0 4 0 4 0 0 Z " fill="#72CFF4" transform="translate(6,0)"/>
<path d="M0 0 C110.22 0 220.44 0 334 0 C334 110.55 334 221.1 334 335 C329.50552316 331.14759128 325.20809232 327.35367125 321.05019569 323.17883015 C320.49200856 322.62239605 319.93382142 322.06596195 319.35871953 321.49266621 C317.49969466 319.63827194 315.64421914 317.78036797 313.78872681 315.92243958 C312.43892254 314.57450473 311.08890251 313.22678593 309.73868597 311.87926406 C306.03726459 308.18395023 302.3389636 304.48552735 298.64118505 300.78656876 C294.64984577 296.79502524 290.65564559 292.80634623 286.66183472 288.817276 C278.84295883 281.00670007 271.02685754 273.19335331 263.21185167 265.37890533 C256.86310121 259.03063007 250.5135615 252.6831453 244.16346359 246.33621788 C229.09463281 231.27475792 214.02641089 216.21269026 198.96152687 201.1472826 C198.2393892 200.42512156 198.2393892 200.42512156 197.50266289 199.68837141 C195.06264567 197.24827109 192.62263643 194.8081628 190.18262894 192.36805276 C189.69803819 191.88344206 189.21344743 191.39883136 188.71417211 190.89953549 C187.73421485 189.91953779 186.75425828 188.93953941 185.77430238 187.95954036 C170.51098286 172.69560742 155.2436017 157.4357472 139.97314453 142.17895508 C122.81630803 125.03746537 105.66284584 107.89261089 88.51413953 90.74298686 C79.43366778 81.66218253 70.35164897 72.58293777 61.26564407 63.50766945 C53.53515586 55.78625761 45.80810126 48.06143036 38.08555706 40.33207301 C34.14269068 36.3859277 30.19819913 32.44144254 26.24938202 28.50125122 C22.63945765 24.89913179 19.03412188 21.29248684 15.43249075 17.68207582 C14.12421273 16.37224953 12.81421894 15.06413443 11.50240465 13.75784979 C9.72856378 11.99099586 7.96091052 10.2181801 6.19475746 8.44364643 C5.67636879 7.93022594 5.15798013 7.41680546 4.62388271 6.88782677 C2.34630643 4.58711764 1.04029503 3.12088508 0 0 Z " fill="#3D68B1" transform="translate(1,661)"/>
</svg>
